<svg width="318" height="52" viewBox="0 0 318 52" fill="none" xmlns="http://www.w3.org/2000/svg">
<g clip-path="url(#clip0_10_2)">
<path d="M0.470428 0.434906H11.7933C18.4214 0.434906 22.6552 2.15091 24.4945 5.58291C25.5764 7.76218 26.1221 10.5276 26.1221 13.8745C26.061 14.4702 26.028 15.0753 26.028 15.6945H32.3175V17.8218H25.8116V17.7604C25.9151 16.484 25.9669 15.7985 25.9669 15.6945H22.3165V17.8218H25.8163V25.3145H18.572V27.9051H18.5108C12.927 27.9476 9.76581 27.9665 9.03197 27.9665V31.8524H7.49842V38.7589H8.35927V44.5545H1.48182V41.8411H0.531582V39.5578C0.531582 36.9247 0.512766 32.6418 0.470428 26.6996H4.643V24.4495H0.470428V0.434906ZM9.02726 7.92763V20.4738H11.6334V18.6538H16.8173C17.5135 18.0156 17.8616 16.2287 17.8616 13.2884C17.8616 10.4709 17.2266 8.85891 15.9612 8.44763C15.4908 8.09782 14.4182 7.92291 12.7388 7.92291H9.02726V7.92763ZM26.3338 18.2851H26.5502C26.7948 18.4884 26.9171 18.6869 26.9171 18.8713L27.4063 18.2851H27.7121V18.408C27.3217 18.9422 27.1288 19.4575 27.1288 19.9491H26.9124C26.8089 19.9491 26.7384 19.6607 26.696 19.084C26.616 19.084 26.442 18.8382 26.1739 18.3418L26.3338 18.2851ZM26.2397 20.4738H27.5569V20.8425H27.1288V22.0149C27.1288 22.1189 27.0771 22.1709 26.9736 22.1709H26.8183C26.7384 22.1709 26.696 22.1189 26.696 22.0149V20.8473H26.235V20.4738H26.2397Z" fill="white"/>
<path d="M29.5844 24.4542H35.3516V25.7778H29.5844V24.4542ZM45.4467 0.401825H52.8416C52.9451 0.832007 55.3489 8.86837 60.0531 24.5109H61.3702V39.0331H58.3314V40.1724H61.3702V43.2876H53.2086V34.3484H43.2075V38.1396H39.1573V44.5546H31.7294V44.1244H32.3128V38.1396H35.3516V25.7778H37.8683L45.4467 0.401825ZM33.9404 35.828H34.185C34.3496 35.828 34.6131 36.504 34.9847 37.8607H34.5566C34.5566 37.8182 34.5049 37.6669 34.4014 37.3975H33.7287C33.6864 37.7047 33.6158 37.8607 33.5123 37.8607H33.1454C33.5735 36.5087 33.8369 35.828 33.9404 35.828ZM34.0345 36.5087C33.931 36.8396 33.8792 37.0146 33.8792 37.0335H34.2462L34.0909 36.5087H34.0345ZM35.8126 23.556H36.4853C36.4853 23.7404 36.5794 23.8964 36.7629 24.0193C36.7817 23.8349 36.8852 23.6789 37.0686 23.556H37.5908V23.6175C37.2427 24.1091 37.0686 24.388 37.0686 24.4495C37.1486 24.6338 37.3462 24.9316 37.652 25.3429V25.4989H37.3744C37.0875 25.4989 36.8852 25.2956 36.7629 24.8844C36.4571 25.2956 36.283 25.4989 36.2407 25.4989H35.8738C35.7703 25.4989 35.7186 25.4469 35.7186 25.3429C35.7797 25.3429 35.982 25.064 36.3301 24.5109V24.3927C35.9867 23.8775 35.8126 23.5986 35.8126 23.556ZM45.4467 34.9346V35.3364C45.4467 35.4167 45.0469 35.5822 44.2519 35.828V35.9226L45.4467 36.3527V36.816L43.5745 36.14V35.6153L45.4467 34.9346ZM48.9137 12.8298V12.9244C48.2786 16.4178 47.0508 21.9487 45.2303 29.5124H52.1031V24.5156H51.5198C49.8827 17.3633 49.0642 13.468 49.0642 12.8298H48.9137ZM50.2638 27.352H50.6918V28.0942L51.5198 27.352H51.9478V27.4466L51.3034 28.1887C51.7926 28.8884 52.0419 29.2807 52.0419 29.3611H51.5809C51.5386 29.3611 51.3128 29.0964 50.9082 28.5575C50.8471 28.5575 50.7765 28.6284 50.6918 28.7749V29.3611H50.2638V27.352ZM53.2086 43.8124H63.0872V44.5546H53.2086V43.8124ZM61.5819 30.6186H62.9932C63.0967 30.6375 63.1484 30.6895 63.1484 30.7746V30.9306C63.1484 31.0346 63.0967 31.0866 62.9932 31.0866H62.5651V32.6607H62.0429V31.0866H61.5819C61.4784 31.0866 61.4267 31.0346 61.4267 30.9306V30.7746C61.4502 30.6706 61.502 30.6186 61.5819 30.6186ZM61.4314 33.2375H61.7983C61.9394 33.2375 62.0947 33.6582 62.2593 34.4996H62.3205C62.5651 33.7575 62.6874 33.3367 62.6874 33.2375H63.2096C62.8191 34.5753 62.5745 35.2418 62.471 35.2418H62.0429L61.4314 33.2375ZM61.5819 25.4091H63.1484V25.7778L62.1982 26.9786H63.0872C63.1672 26.9975 63.2096 27.0495 63.2096 27.1346V27.2906C63.2096 27.3946 63.1672 27.4466 63.0872 27.4466H61.5208V27.0778L62.471 25.8771H61.5819V25.4091ZM62.4099 35.828H62.6262C63.1155 35.828 63.4118 36.1778 63.5153 36.8775C63.3742 37.5771 63.0543 37.9269 62.5651 37.9269C61.8689 37.804 61.5208 37.4542 61.5208 36.8775C61.6243 36.1778 61.9206 35.828 62.4099 35.828ZM61.7372 28.028H62.6262C63.0778 28.0895 63.2989 28.3164 63.2989 28.704L63.0826 29.0727C63.2237 29.2382 63.2989 29.536 63.2989 29.9662V30.0276H62.8379C62.7956 29.536 62.725 29.2855 62.6215 29.2855H62.0994V30.0276H61.7325C61.629 30.0276 61.5772 29.9756 61.5772 29.8716V28.1746C61.6054 28.08 61.6572 28.028 61.7372 28.028ZM62.0429 36.816V36.8775C62.0429 37.1469 62.1652 37.3502 62.4099 37.492H62.6262C62.8709 37.3502 62.9932 37.1422 62.9932 36.8775V36.816C62.9508 36.4236 62.7768 36.2298 62.471 36.2298C62.1888 36.3338 62.0429 36.5276 62.0429 36.816ZM62.1041 28.4582V28.9215H62.6262C62.7297 28.9215 62.7815 28.8695 62.7815 28.7655V28.4582H62.1041Z" fill="white"/>
<path d="M80.5773 0.373459C86.7115 0.373459 90.5783 2.29746 92.173 6.14073C92.6246 7.08619 92.8457 7.71491 92.8457 8.02219H88.9789V9.19455H93.1185V9.13309C93.1185 8.92982 93.0244 8.55637 92.841 8.02219H99.9301V9.19455H93.2126V9.28909C93.5607 10.9342 93.8053 12.7116 93.9511 14.6215C93.9511 14.7255 91.2604 14.9193 85.8835 15.2076V15.1462C85.8835 10.2345 84.2042 7.77637 80.8501 7.77637H79.9892C77.4725 7.77637 75.939 8.84473 75.3886 10.9815C74.937 12.792 74.7159 15.1651 74.7159 18.1055V24.1185L74.6547 25.012H71.8605V26.4302H74.6547V37.128H86.4998V25.9953H93.2784V37.1233H89.5057V43.9684H81.6169V44.5546H75.4827V43.9684H69.2544V40.5458H73.394V39.0662H67.1987V34.008H64.5314V27.7822H65.9427C65.8815 25.1916 65.8486 23.1589 65.8486 21.6793C65.8486 14.9571 66.1732 10.7262 66.8318 8.97709C67.4245 6.96328 68.4077 5.22837 69.7766 3.76764C72.2086 1.50328 75.8073 0.373459 80.5773 0.373459ZM75.2381 34.9062H75.605V36.4473H76.4941V36.9105H75.2381C75.1581 36.9105 75.1158 36.8585 75.1158 36.7546V35.0575C75.1158 34.9535 75.1534 34.9062 75.2381 34.9062ZM84.4723 34.9062H84.9333C85.1779 35.1095 85.3002 35.308 85.3002 35.4924C85.3426 35.4924 85.5166 35.2985 85.8224 34.9062H86.1893V35.0622C85.8412 35.516 85.6671 35.8327 85.6671 36.0171C85.7283 36.0171 85.9212 36.2865 86.2505 36.8207V36.9153H85.8224L85.3002 36.3291C85.1168 36.6789 84.9709 36.8727 84.8721 36.9153H84.4111C84.5146 36.712 84.7357 36.3622 85.0838 35.8658L84.4723 34.9724V34.9062ZM90.5453 37.5866C91.0346 37.7095 91.2839 37.856 91.2839 38.0167V38.324H90.9781L90.7006 38.0167H90.3948C90.2913 38.0356 90.2396 38.0876 90.2396 38.1727V38.3287C90.9969 38.4706 91.3733 38.636 91.3733 38.8204V39.0662C91.3733 39.4585 91.1475 39.6524 90.7006 39.6524H90.3948C90.1267 39.6524 89.915 39.5106 89.7503 39.2222V38.9149H90.1784C90.1784 39.1607 90.3195 39.2836 90.6065 39.2836H90.7006C90.7617 39.2836 90.8323 39.2127 90.917 39.0662C90.917 39.0047 90.5689 38.8298 89.8727 38.5415L89.8115 38.3855V38.0167C89.8115 37.8513 90.0561 37.7095 90.5453 37.5866Z" fill="white"/>
<path d="M97.5404 0.373459H106.252V17.9778H115.059V0.373459H122.454V25.4706H119.415V26.5815H122.454V44.5546H115.214C115.11 44.5546 115.059 44.5025 115.059 44.3985V25.3145H106.252V44.3985C106.252 44.5025 106.201 44.5546 106.097 44.5546H98.7964V21.5233H97.5404V0.373459ZM122.454 25.4706H126.349V26.5815H122.454V25.4706Z" fill="white"/>
<path d="M129.938 0.401825H151.6V7.61564C151.6 7.71964 151.549 7.77164 151.445 7.77164H138.589V17.3586H150.123V17.42C150.123 17.7084 150.072 19.2684 149.968 22.1047C149.926 22.1047 149.907 22.1378 149.907 22.1993H150.429V24.4211H140.428V33.4833H137.761V34.3767H140.428V37.1185H151.751V38.168H150.862V43.5949H137.333V44.5498H130.888V28.7371H129.938V23.1589H122.91V22.204H129.938V0.401825ZM130.004 22.1993V23.1542H133.626V22.1993H130.004ZM141.105 34.9062H141.628V35.6484H141.689C141.689 35.5066 141.915 35.256 142.361 34.9062H142.884L142.145 35.7098L142.945 36.9106H142.423C142.032 36.3575 141.821 36.0786 141.778 36.0786C141.675 36.0975 141.623 36.1495 141.623 36.2346V36.9106H141.101V34.9062H141.105ZM143.683 34.9062H144.728C145.052 34.9062 145.278 35.1 145.4 35.4924C145.4 35.5538 145.297 35.7287 145.095 36.0171C145.236 36.0171 145.339 36.3149 145.4 36.9106H145.033C144.93 36.9106 144.85 36.6647 144.789 36.1684H144.205V36.9106H143.683V34.9062ZM144.205 35.3364V35.7996H144.728C144.831 35.7996 144.883 35.7476 144.883 35.6436V35.4876C144.883 35.3836 144.831 35.3316 144.728 35.3316H144.205V35.3364ZM147.028 34.9062H147.306C147.757 34.9062 148.03 35.204 148.133 35.7996V36.0786C148.133 36.244 148.063 36.4189 147.917 36.6033V36.6978C148.058 36.6978 148.133 36.7404 148.133 36.8207C148.133 36.9011 148.063 36.9862 147.917 37.0666C147.837 37.0666 147.752 36.9862 147.672 36.8207L147.306 36.9153H147.028C146.539 36.9153 146.261 36.5466 146.2 35.8044C146.341 35.204 146.619 34.9062 147.028 34.9062ZM146.722 35.7996V36.0171C146.722 36.3669 146.896 36.5418 147.244 36.5418H147.306V36.4473H147.183V36.3858C147.183 36.3055 147.254 36.2298 147.4 36.1684L147.616 36.2913C147.616 36.2724 147.635 36.1258 147.677 35.8611C147.658 35.4687 147.461 35.2749 147.094 35.2749C146.845 35.3364 146.722 35.5113 146.722 35.7996ZM151.323 38.6029H151.751V38.6975C151.751 39.5815 151.68 40.0211 151.535 40.0211C151.393 40.0211 151.318 39.7044 151.318 39.0662V38.6029H151.323ZM151.323 40.0826H151.751V40.5458H151.323V40.0826Z" fill="white"/>
<path d="M170.469 0.373459C176.603 0.373459 180.47 2.29746 182.064 6.14073C182.516 7.08619 182.737 7.71491 182.737 8.02219H178.87V9.19455H183.01V9.13309C183.01 8.92982 182.916 8.55637 182.732 8.02219H189.822V9.19455H183.104V9.28909C183.452 10.9342 183.697 12.7116 183.843 14.6215C183.843 14.7255 181.152 14.9193 175.775 15.2076V15.1462C175.775 10.2345 174.096 7.77637 170.742 7.77637H169.881C167.364 7.77637 165.83 8.84473 165.28 10.9815C164.828 12.792 164.607 15.1651 164.607 18.1055V24.1185L164.546 25.012H161.752V26.4302H164.546V37.128H176.391V25.9953H183.17V37.1233H179.397V43.9684H171.513V44.5546H165.379V43.9684H159.151V40.5458H163.29V39.0662H157.095V34.008H154.428V27.7822H155.839C155.778 25.1916 155.745 23.1589 155.745 21.6793C155.745 14.9571 156.069 10.7262 156.728 8.97709C157.321 6.96328 158.304 5.22837 159.673 3.76764C162.105 1.50328 165.703 0.373459 170.469 0.373459ZM165.13 34.9062H165.496V36.4473H166.386V36.9105H165.13C165.05 36.9105 165.007 36.8585 165.007 36.7546V35.0575C165.007 34.9535 165.05 34.9062 165.13 34.9062ZM174.364 34.9062H174.825C175.069 35.1095 175.192 35.308 175.192 35.4924C175.234 35.4924 175.408 35.2985 175.714 34.9062H176.081V35.0622C175.733 35.516 175.559 35.8327 175.559 36.0171C175.62 36.0171 175.813 36.2865 176.142 36.8207V36.9153H175.714L175.192 36.3291C175.008 36.6789 174.862 36.8727 174.764 36.9153H174.303C174.406 36.712 174.627 36.3622 174.975 35.8658L174.364 34.9724V34.9062ZM180.442 37.5866C180.931 37.7095 181.18 37.856 181.18 38.0167V38.324H180.874L180.597 38.0167H180.291C180.187 38.0356 180.136 38.0876 180.136 38.1727V38.3287C180.893 38.4706 181.269 38.636 181.269 38.8204V39.0662C181.269 39.4585 181.044 39.6524 180.597 39.6524H180.291C180.023 39.6524 179.811 39.5106 179.647 39.2222V38.9149H180.075C180.075 39.1607 180.216 39.2836 180.503 39.2836H180.597C180.658 39.2836 180.728 39.2127 180.813 39.0662C180.813 39.0047 180.465 38.8298 179.769 38.5415L179.708 38.3855V38.0167C179.703 37.8513 179.948 37.7095 180.442 37.5866Z" fill="white"/>
<path d="M202.683 0.373459C208.982 0.373459 213.126 2.59528 215.106 7.03419C216.231 9.19455 216.795 13.3545 216.795 19.5189V19.7364H213.545V21.216H216.795V37.1564H214.645V42.9236H210.379V44.5593H195.467V42.9236H193.627V37.1564H189.793V32.656H192.094V30.3113H189.793V32.656H184.365V30.3113H188.476C188.434 26.6949 188.415 23.9295 188.415 22.0196V18.2567C188.415 11.2698 189.591 6.59455 191.943 4.22619C194.112 1.65928 197.692 0.373459 202.683 0.373459ZM197.315 15.6047H197.376L197.315 15.7276V19.7364H194.004V21.216H197.315C197.254 27.5695 197.221 32.3676 197.221 35.6153V37.1564H204.583V34.7218H207.956V34.6604C207.956 31.6585 207.937 27.4749 207.895 22.1142C207.895 21.8873 207.914 21.3105 207.956 20.3887C207.956 14.5742 207.617 11.0051 206.945 9.69091C206.248 8.41455 204.969 7.78109 203.111 7.78109H202.005C199.794 7.78109 198.425 8.75964 197.894 10.712C197.654 11.6858 197.456 13.3215 197.315 15.6047ZM198.482 32.8687C198.91 32.8687 199.155 33.1996 199.22 33.8567C199.22 34.3295 198.924 34.5989 198.331 34.6604C197.842 34.5375 197.593 34.268 197.593 33.8567C197.593 33.1996 197.889 32.8687 198.482 32.8687ZM198.327 35.0905C198.656 35.0905 198.901 35.2465 199.065 35.5538V35.7713H198.698C198.698 35.568 198.557 35.464 198.27 35.464L198.054 35.7713V36.0502C198.054 36.3575 198.195 36.5135 198.482 36.5135C198.524 36.5135 198.647 36.3905 198.849 36.1447H199.155C199.155 36.556 198.877 36.8018 198.327 36.8869C197.837 36.7451 197.588 36.4662 197.588 36.0549C197.654 35.4073 197.899 35.0905 198.327 35.0905ZM198.049 33.5495V33.8567C198.049 34.1451 198.19 34.2869 198.477 34.2869C198.679 34.2444 198.783 34.1026 198.783 33.8567V33.5495C198.783 33.4691 198.679 33.3651 198.477 33.2422H198.322C198.265 33.2375 198.171 33.3415 198.049 33.5495ZM206.644 32.9633H207.072C207.072 33.0862 207.274 33.6204 207.683 34.5658H207.316C207.213 34.5658 207.161 34.4713 207.161 34.2869H206.639C206.535 34.2869 206.484 34.3815 206.484 34.5658H206.056V34.5044C206.159 34.32 206.357 33.8047 206.644 32.9633ZM206.211 30.7415H207.439V30.8975C207.439 31.0818 207.194 31.4505 206.7 32.0084C207.25 32.0084 207.528 32.0509 207.528 32.1313V32.3771H206.117V32.0698C206.484 31.6396 206.728 31.3182 206.855 31.1149H206.211V30.7415ZM206.211 28.5196H206.639V29.1058H207.161V28.6756C207.18 28.5716 207.232 28.5196 207.316 28.5196H207.594V30.1553H207.166V29.4793H206.644V30.1553H206.215V28.5196H206.211ZM206.794 33.5495L206.7 33.9182H207.006C206.949 33.6724 206.879 33.5495 206.794 33.5495ZM216.795 19.7364H222.073V21.216H216.795V19.7364ZM217.167 21.4902H217.322C217.444 21.4902 217.538 21.788 217.6 22.3836C217.679 22.3836 217.802 22.0858 217.966 21.4902H218.183C218.305 21.4902 218.409 21.8069 218.489 22.4451H218.55L218.766 21.4902H219.133V21.5847C218.907 22.6531 218.743 23.1873 218.644 23.1873H218.338C218.338 23.1069 218.267 22.7855 218.122 22.2324H218.061C217.981 22.8705 217.877 23.1873 217.755 23.1873H217.449C217.308 22.5491 217.162 22.0149 217.021 21.5847L217.167 21.4902ZM217.073 25.9338H217.378C217.623 26.0756 217.745 26.2505 217.745 26.4585C217.764 26.4585 217.91 26.2836 218.173 25.9338H218.479V26.0898L218.051 26.7375C218.051 26.78 218.216 27.0542 218.54 27.5695V27.6309H218.173L217.745 27.1062C217.581 27.456 217.458 27.6309 217.378 27.6309H217.011C217.36 27.1156 217.534 26.8178 217.534 26.7375C217.228 26.2836 217.073 26.0142 217.073 25.9338ZM217.317 23.712H217.595C217.717 23.712 217.872 24.0618 218.056 24.7615H218.117C218.117 24.6575 218.211 24.3076 218.395 23.712H218.917V25.4091H218.55V24.544H218.489C218.347 25.1207 218.22 25.4091 218.122 25.4091H217.905C217.764 24.9553 217.689 24.6905 217.689 24.6055H217.595C217.595 25.1396 217.543 25.4091 217.44 25.4091H217.162V23.868C217.186 23.764 217.237 23.712 217.317 23.712ZM217.317 28.1509H217.745C218.235 28.1509 218.484 28.3258 218.484 28.6756V28.7371L218.329 28.9545C218.409 28.9545 218.484 29.0349 218.545 29.2004V29.4793C218.442 29.7251 218.197 29.848 217.806 29.848H217.162V28.3069C217.186 28.2029 217.237 28.1509 217.317 28.1509ZM217.317 30.3727H218.267C218.347 30.3916 218.39 30.4436 218.39 30.5287V30.7462H217.59V31.0251H218.329V31.3938H217.59V31.7011H218.39V32.0698H217.162V30.5287C217.186 30.4247 217.237 30.3727 217.317 30.3727ZM217.595 28.5196V28.8269H218.056V28.5196H217.595ZM217.595 29.1058V29.4745H218.117V29.2618C218.117 29.1578 218.065 29.1058 217.962 29.1058H217.595Z" fill="white"/>
<path d="M225.168 51.6265V1.3H236.67V4.77455H229.445V48.1567H236.67V51.6313H225.168V51.6265Z" fill="white"/>
<path d="M238.048 0.373459H247.377C247.438 0.865095 248.614 6.59928 250.905 17.576H252.838V19.2731H250.505V17.576H247.221V19.2731H250.505V27.196H251.549V31.2945H254.127V25.2531H255.077V19.2731H256.95V17.576H255.477C257.787 6.59928 258.977 0.865095 259.038 0.373459H268.367C264.994 15.1131 263.305 22.6247 263.305 22.9131V30.5855H260.727V32.1265H262.66V36.6269H259.194V44.5498H248.271C248.148 44.5498 247.852 43.42 247.381 41.1604H250.204V39.312H247.043C246.92 39.312 246.633 38.1207 246.182 35.7335C245.951 35.0149 243.242 23.2298 238.048 0.373459ZM259.678 36.972H260.628C260.896 36.972 261.08 37.128 261.179 37.4353L260.962 37.9269C261.066 37.9269 261.136 38.1964 261.179 38.7305H260.873C260.769 38.7305 260.689 38.5131 260.628 38.0829H260.078V38.7305H259.678V36.972ZM259.678 39.3735H260.967V39.6193C260.967 39.7233 260.906 39.7753 260.784 39.7753H260.078V40.0211H260.784V40.4229H260.078V41.1651H259.678V39.3735ZM259.678 41.808H260.078V43.5949H259.678V41.808ZM260.078 37.2793V37.6811H260.567C260.671 37.6811 260.722 37.6291 260.722 37.5251V37.4305C260.722 37.3265 260.671 37.2745 260.567 37.2745H260.078V37.2793Z" fill="white"/>
<path d="M272.502 0.373459H280.786C280.866 0.392368 280.908 0.444368 280.908 0.529459V21.9865C280.908 22.0905 280.866 22.1425 280.786 22.1425H279.802V44.4033C279.802 44.5073 279.751 44.5593 279.647 44.5593H272.497C272.393 44.5593 272.342 44.5073 272.342 44.4033V21.6178H270.131C270.027 21.6178 269.975 21.5658 269.975 21.4618V20.5069C269.994 20.4029 270.046 20.3509 270.131 20.3509H272.342V0.524732C272.37 0.425459 272.422 0.373459 272.502 0.373459ZM272.407 20.3509V21.6131H276.641V20.3509H272.407Z" fill="white"/>
<path d="M280.969 0.373459H306.743V7.74328H298.214V38.2956H302.081V39.1891H298.214V42.5502H295.914V43.7225H297.542V44.5546H289.719C289.615 44.5546 289.563 44.5025 289.563 44.3985V7.74328H280.974V0.373459H280.969ZM295.175 38.2956V39.1891H298.153V38.2956H295.175Z" fill="white"/>
<path d="M317.53 1.23383V51.6266H306.033V48.152H313.258V4.70837H306.033V1.23383H317.53Z" fill="white"/>
</g>
<defs>
<clipPath id="clip0_10_2">
<rect width="318" height="52" fill="white"/>
</clipPath>
</defs>
</svg>
